<?xml version="1.0" encoding="utf-8"?>
<!-- Generator: Adobe Illustrator 16.0.0, SVG Export Plug-In . SVG Version: 6.00 Build 0)  -->
<!DOCTYPE svg PUBLIC "-//W3C//DTD SVG 1.1//EN" "http://www.w3.org/Graphics/SVG/1.1/DTD/svg11.dtd">
<svg version="1.1" id="Layer_1" xmlns="http://www.w3.org/2000/svg" xmlns:xlink="http://www.w3.org/1999/xlink" x="0px" y="0px"
	 width="650.916px" height="77.164px" viewBox="0 0 650.916 77.164" enable-background="new 0 0 650.916 77.164"
	 xml:space="preserve">
<g>
	<g>
		<path fill="#FFFFFF" d="M0,23.274c0-1.421,0.45-2.601,1.351-3.54s2.189-1.409,3.864-1.409s2.969,0.47,3.883,1.409
			s1.371,2.119,1.371,3.54c0,1.396-0.457,2.557-1.371,3.483c-0.914,0.927-2.208,1.39-3.883,1.39s-2.963-0.463-3.864-1.39
			C0.45,25.831,0,24.67,0,23.274z M9.821,75.157h-9.25V33.97h9.25V75.157z"/>
	</g>
	<g>
		<path fill="#FFFFFF" d="M28.474,33.97l0.266,4.758c3.045-3.679,7.042-5.52,11.991-5.52c8.578,0,12.943,4.911,13.095,14.731v27.217
			h-9.25V48.474c0-2.614-0.565-4.549-1.694-5.805c-1.129-1.256-2.976-1.884-5.539-1.884c-3.73,0-6.509,1.688-8.336,5.063v29.31
			h-9.25V33.97H28.474z"/>
	</g>
	<g>
		<path fill="#FFFFFF" d="M61.515,54.259c0-6.344,1.471-11.438,4.416-15.283c2.943-3.845,6.89-5.767,11.838-5.767
			c4.365,0,7.892,1.522,10.583,4.568V16.688h9.25v58.469h-8.375l-0.457-4.263c-2.766,3.35-6.458,5.024-11.077,5.024
			c-4.822,0-8.724-1.941-11.705-5.824C63.005,66.212,61.515,60.935,61.515,54.259z M70.765,55.06c0,4.187,0.805,7.454,2.417,9.801
			c1.611,2.348,3.902,3.521,6.871,3.521c3.781,0,6.547-1.688,8.298-5.062V45.733c-1.701-3.299-4.441-4.949-8.222-4.949
			c-2.995,0-5.304,1.187-6.928,3.559S70.765,50.288,70.765,55.06z"/>
	</g>
	<g>
		<path fill="#FFFFFF" d="M125.389,75.919c-5.862,0-10.614-1.846-14.255-5.539c-3.642-3.691-5.462-8.608-5.462-14.75v-1.143
			c0-4.11,0.792-7.783,2.379-11.02c1.586-3.235,3.812-5.754,6.681-7.556c2.867-1.801,6.065-2.703,9.593-2.703
			c5.608,0,9.941,1.789,13,5.367c3.058,3.578,4.587,8.642,4.587,15.188v3.73h-26.913c0.279,3.4,1.414,6.09,3.407,8.07
			c1.992,1.979,4.498,2.969,7.518,2.969c4.238,0,7.689-1.713,10.354-5.139l4.986,4.758c-1.65,2.462-3.851,4.372-6.604,5.729
			C131.905,75.239,128.815,75.919,125.389,75.919z M124.286,40.632c-2.538,0-4.587,0.889-6.148,2.665
			c-1.561,1.777-2.557,4.251-2.988,7.423h17.625v-0.686c-0.203-3.096-1.027-5.437-2.474-7.023
			C128.854,41.425,126.848,40.632,124.286,40.632z"/>
	</g>
	<g>
		<path fill="#FFFFFF" d="M141.376,62.198c0.72-0.18,1.71-0.27,2.79-0.27c2.61,0,5.13,0.72,7.02,2.25
			c3.51,2.879,9.45,7.379,14.669,7.379c1.98,0,3.78-0.449,4.77-1.439c1.35-1.35,0.9-2.971-0.09-3.78
			c-6.48-5.04-18.989-9.899-18.989-19.079c0-12.239,14.04-22.949,22.139-26.369c2.97-1.26,4.86-1.53,6.93-1.53
			c2.16,0,3.96,0.63,5.49,1.89c2.52,2.34,4.14,5.31,4.77,7.74c0.9,3.689-1.35,7.29-2.7,9.27c-2.16,2.88-4.77,7.56-6.03,9.72
			c-0.81,1.439-1.8,2.159-3.51,0.359c-1.26-1.26-2.16-2.79-2.16-4.86c0-1.98,1.17-5.4,4.14-9.359c2.25-3.33,4.68-7.29,3.42-8.19
			c-3.33-2.43-23.039,10.8-23.489,21.149c-0.27,5.939,12.06,11.069,15.569,13.59c1.71,1.26,2.7,2.879,2.7,4.59
			c0,2.069-1.17,4.409-3.51,7.199c-2.34,2.699-6.75,4.59-12.15,4.59c-6.57,0-15.299-3.689-22.409-11.88
			C139.486,63.638,140.116,62.648,141.376,62.198z"/>
	</g>
	<g>
		<path fill="#FFFFFF" d="M221.563,56.438c0.45,0.99,0.63,2.07,0.63,2.97c0,5.22-4.86,10.44-8.1,12.87
			c-3.689,2.609-7.739,3.689-11.609,3.689c-2.97,0-5.67-0.63-7.919-1.891c-4.23-2.25-7.92-7.919-8.1-15.299
			c-0.36-18.179,15.75-34.469,25.919-39.058c2.34-0.9,4.86-1.53,7.11-1.53s4.32,0.63,5.85,1.89c3.06,2.7,5.399,6.209,5.399,9.719
			c0,1.62-0.36,3.42-1.26,5.22c-1.53,3.06-2.79,6.12-3.42,8.1c-0.45,1.53-1.71,2.43-3.51,1.35c-1.8-1.17-3.06-3.15-3.06-5.76
			c0-1.08,0.18-2.16,0.54-3.33c0.36-1.35,0.99-2.79,1.53-4.14c1.26-3.15,2.34-6.03,1.26-7.2c-2.16-2.34-14.939,5.49-22.409,17.549
			c-3.96,6.391-5.67,13.77-5.67,19.17c0,7.739,3.42,11.159,6.66,11.159c4.95,0,11.34-5.76,16.56-15.749
			C218.593,54.909,220.663,54.368,221.563,56.438z"/>
	</g>
	<g>
		<path fill="#FFFFFF" d="M247.754,76.058c-5.58-7.379-9.899-13.139-13.5-17.189c-2.25,4.41-4.59,9.54-7.29,16.199
			c-0.63,1.711-1.62,1.891-2.97,0.541c-0.99-1.08-1.71-2.521-1.71-4.771c0-1.26,0.18-2.88,0.63-4.5
			c2.25-7.829,10.169-24.209,18.089-36.539c-2.97-0.54-4.23-1.8-5.31-3.689c-0.72-1.26-0.27-1.98,1.62-2.25
			c3.6-0.54,7.02-1.53,10.259-2.61c3.42-1.08,6.57-1.98,9.9-2.16c4.77-0.18,9.18,1.8,11.43,7.47c2.43,6.03,0.54,11.16-2.79,15.75
			c-4.59,6.209-13.859,11.7-23.669,14.219c3.24,3.87,6.3,8.189,8.009,11.52c0.81,1.53,1.26,3.24,1.26,4.68
			c0,1.08-0.36,2.16-0.9,3.061C249.824,77.317,248.834,77.497,247.754,76.058z M248.564,29.26c-0.09,2.52-1.17,5.669-3.42,9.899
			c-2.43,4.5-4.68,8.279-6.3,11.069c18-4.589,26.819-16.469,24.479-22.409c-0.54-1.44-1.53-1.89-2.88-1.89
			c-2.07,0-5.49,1.17-8.37,2.16L248.564,29.26z"/>
	</g>
	<g>
		<path fill="#FFFFFF" d="M285.824,19.9c1.44-2.07,2.79-1.8,3.78,0.09c0.45,0.9,0.81,2.16,0.81,3.6c0,2.43-1.08,6.209-3.42,10.439
			c-5.49,9.72-15.479,27.269-21.689,41.128c-0.72,1.711-1.62,1.98-3.06,0.36c-0.9-0.899-1.62-2.521-1.62-4.77
			c0-1.261,0.36-3.42,1.08-5.58C266.385,52.929,278.714,30.069,285.824,19.9z"/>
	</g>
	<g>
		<path fill="#FFFFFF" d="M280.334,62.019c3.42-9.449,10.17-22.5,16.47-32.129c-3.15-0.45-4.86-2.43-5.58-3.87
			c-0.54-1.26-0.09-2.07,1.71-2.16c5.49-0.36,13.41-4.68,20.339-5.31c6.3-0.54,11.79,2.79,11.79,13.14c0,3.15-1.62,6.84-3.87,9.72
			c-2.25,3.06-7.2,7.379-13.049,10.26c2.7,1.619,4.86,4.5,4.86,8.01c0,2.52-0.99,5.489-3.51,8.1
			c-3.69,4.049-10.98,7.289-16.02,8.459c-1.26,0.271-2.7,0.36-3.78,0.36c-1.62,0-2.88-0.271-4.23-0.899
			c-3.78-1.801-6.479-5.4-6.479-8.28C278.984,66.338,279.524,64.089,280.334,62.019z M306.703,57.519c0-1.62-1.62-3.061-5.67-3.42
			c-3.42,0.72-6.839,0.9-8.729,0.359c-2.25,4.41-4.41,9-5.67,12.96c-0.81,2.521-0.09,3.42,1.8,3.149
			c5.22-0.629,12.689-4.229,16.379-8.819C305.983,60.308,306.703,58.778,306.703,57.519z M295.543,48.159
			c14.759-3.96,24.119-13.59,24.029-19.62c0-1.89-1.53-3.06-3.06-3.06c-2.43,0-6.12,1.35-11.97,3.33c0.09,1.98-0.54,4.59-2.7,8.64
			C300.854,39.339,299.593,41.499,295.543,48.159z"/>
	</g>
	<g>
		<path fill="#FFFFFF" d="M317.594,62.019c3.42-9.449,10.17-22.5,16.47-32.129c-3.15-0.45-4.859-2.43-5.58-3.87
			c-0.54-1.26-0.09-2.07,1.71-2.16c5.489-0.36,13.409-4.68,20.339-5.31c6.301-0.54,11.79,2.79,11.79,13.14
			c0,3.15-1.62,6.84-3.87,9.72c-2.25,3.06-7.199,7.379-13.049,10.26c2.699,1.619,4.859,4.5,4.859,8.01c0,2.52-0.99,5.489-3.51,8.1
			c-3.689,4.049-10.979,7.289-16.02,8.459c-1.26,0.271-2.699,0.36-3.779,0.36c-1.621,0-2.88-0.271-4.23-0.899
			c-3.78-1.801-6.479-5.4-6.479-8.28C316.245,66.338,316.785,64.089,317.594,62.019z M343.963,57.519c0-1.62-1.62-3.061-5.67-3.42
			c-3.42,0.72-6.84,0.9-8.729,0.359c-2.25,4.41-4.41,9-5.67,12.96c-0.81,2.521-0.09,3.42,1.8,3.149
			c5.22-0.629,12.69-4.229,16.38-8.819C343.244,60.308,343.963,58.778,343.963,57.519z M332.804,48.159
			c14.759-3.96,24.119-13.59,24.029-19.62c0-1.89-1.531-3.06-3.061-3.06c-2.43,0-6.119,1.35-11.97,3.33
			c0.091,1.98-0.54,4.59-2.7,8.64C338.114,39.339,336.853,41.499,332.804,48.159z"/>
	</g>
	<g>
		<path fill="#FFFFFF" d="M359.984,68.679c4.41-1.08,8.729-1.711,11.97-1.98c4.95-0.36,7.56,1.529,8.729,4.32
			c0.45,1.079,0.27,1.979-1.8,1.979c-4.229-0.09-13.859,2.16-18.989,3.511c-2.609,0.63-3.779,0.63-5.04-1.17
			c-0.899-1.261-2.069-2.88-2.43-3.87c-0.63-1.619-0.63-3.06,0.271-5.49C357.014,54.999,371.863,28,377.443,20.44
			c1.44-1.98,2.521-1.35,3.42,0.27c0.45,0.9,0.811,2.25,0.811,3.69c0,2.25-0.811,5.399-3.061,9.359
			C370.784,48.069,364.933,58.148,359.984,68.679z"/>
	</g>
	<g>
		<path fill="#FFFFFF" d="M383.564,66.878c4.051-10.619,12.689-26.909,20.16-38.518c-2.07-1.35-3.15-2.79-3.601-4.5
			c-0.271-1.26,0.72-1.8,2.069-1.8c4.951,0,9.721-0.54,14.04-1.26c3.06-0.45,5.58-0.9,7.92-0.9c4.14-0.09,6.39,1.53,7.56,4.68
			c0.36,0.99-0.27,1.8-1.979,1.8c-4.5,0-9.36,0.9-13.59,1.71c-1.351,0.27-2.25,0.45-3.601,0.63
			c-2.969,4.5-7.109,11.969-11.339,19.619c1.89-0.27,3.42-0.359,4.68-0.45c4.95-0.18,7.29,1.44,8.28,4.319
			c0.449,1.17,0.27,2.07-1.801,2.07c-4.41,0-10.709,1.08-15.568,2.34c-2.521,4.77-4.41,8.46-6.211,12.51
			c3.69-0.99,9.36-1.98,12.24-2.16c4.859-0.18,7.379,1.26,8.459,4.23c0.451,1.26,0.181,1.979-1.709,1.979
			c-4.771-0.09-14.4,2.25-19.35,3.601c-2.16,0.629-3.6,0.629-4.77-1.08c-0.631-0.9-1.26-2.34-2.25-3.961
			C382.484,70.567,382.665,69.397,383.564,66.878z"/>
	</g>
	<g>
		<path fill="#FFFFFF" d="M446.577,75.157c-0.508-0.989-0.876-2.22-1.104-3.691c-2.664,2.969-6.128,4.453-10.392,4.453
			c-4.035,0-7.379-1.167-10.03-3.502c-2.652-2.334-3.979-5.278-3.979-8.832c0-4.363,1.618-7.713,4.854-10.049
			c3.236-2.334,7.912-3.515,14.027-3.54h5.063v-2.36c0-1.903-0.489-3.426-1.466-4.567c-0.978-1.142-2.519-1.713-4.625-1.713
			c-1.853,0-3.306,0.444-4.358,1.333c-1.054,0.889-1.58,2.106-1.58,3.654h-11.001c0-2.385,0.736-4.593,2.208-6.624
			c1.472-2.03,3.553-3.622,6.243-4.777c2.689-1.154,5.71-1.732,9.06-1.732c5.075,0,9.104,1.275,12.086,3.826
			c2.981,2.55,4.473,6.135,4.473,10.753v17.854c0.024,3.908,0.57,6.865,1.637,8.869v0.646H446.577z M437.479,67.507
			c1.624,0,3.121-0.361,4.491-1.086c1.371-0.723,2.386-1.693,3.046-2.911v-7.081h-4.111c-5.507,0-8.438,1.904-8.793,5.711
			l-0.038,0.646c0,1.371,0.481,2.5,1.446,3.389C434.484,67.063,435.804,67.507,437.479,67.507z"/>
	</g>
	<g>
		<path fill="#FFFFFF" d="M501.62,54.944c0,6.599-1.408,11.744-4.226,15.436c-2.816,3.693-6.751,5.539-11.801,5.539
			c-4.467,0-8.031-1.713-10.696-5.139l-0.495,4.377h-9.896V16.688h11.001v20.974c2.537-2.969,5.874-4.454,10.011-4.454
			c5.025,0,8.965,1.846,11.82,5.539c2.854,3.692,4.282,8.888,4.282,15.587V54.944z M490.619,54.146c0-4.162-0.66-7.201-1.979-9.117
			c-1.32-1.916-3.287-2.874-5.9-2.874c-3.502,0-5.913,1.434-7.232,4.302V62.71c1.345,2.893,3.781,4.34,7.309,4.34
			c3.553,0,5.887-1.751,7.004-5.254C490.352,60.122,490.619,57.571,490.619,54.146z"/>
	</g>
	<g>
		<path fill="#FFFFFF" d="M520.005,75.157h-11.039V16.688h11.039V75.157z"/>
	</g>
	<g>
		<path fill="#FFFFFF" d="M548.023,75.919c-6.04,0-10.957-1.852-14.751-5.558c-3.794-3.704-5.69-8.642-5.69-14.808v-1.066
			c0-4.136,0.799-7.834,2.397-11.096c1.599-3.261,3.864-5.773,6.795-7.537c2.932-1.763,6.274-2.646,10.03-2.646
			c5.634,0,10.068,1.777,13.305,5.329c3.235,3.553,4.853,8.591,4.853,15.112v4.491h-26.227c0.354,2.691,1.427,4.848,3.216,6.472
			s4.055,2.437,6.795,2.437c4.238,0,7.55-1.535,9.936-4.605l5.405,6.052c-1.65,2.335-3.883,4.155-6.699,5.462
			C554.57,75.265,551.449,75.919,548.023,75.919z M546.766,42.079c-2.183,0-3.953,0.739-5.31,2.218
			c-1.358,1.479-2.228,3.594-2.608,6.347h15.303v-0.88c-0.051-2.447-0.711-4.34-1.979-5.678
			C550.903,42.748,549.101,42.079,546.766,42.079z"/>
	</g>
</g>
<g>
	<path fill="#FFFFFF" d="M645.919,4.999c-6.678-6.666-17.492-6.666-24.17,0c-0.075,0.086-0.14,0.182-0.189,0.285
		c-0.1,0.048-0.191,0.108-0.275,0.181l-42.957,42.957c-0.512,0.516-0.512,1.347,0,1.861h0.061l-2.412,23.171
		c-0.096,0.722,0.413,1.384,1.135,1.479c0.052,0.007,0.104,0.01,0.157,0.011h0.138l23.172-2.411c0,0,0,0.042,0,0.061
		c0.514,0.512,1.345,0.512,1.859,0l37.54-37.488l0,0l5.469-5.47c0.086-0.09,0.158-0.191,0.216-0.301
		c0.09-0.044,0.174-0.099,0.25-0.164C652.58,22.494,652.583,11.68,645.919,4.999z M644.059,6.86
		c5.446,5.471,5.64,14.253,0.439,19.958L624.101,6.421C629.806,1.22,638.588,1.414,644.059,6.86L644.059,6.86z M593.091,46.673
		c0.514,0.513,1.347,0.513,1.86,0l27.367-27.366l9.293,9.294l-27.365,27.366c-0.544,0.483-0.594,1.317-0.109,1.86
		c0.483,0.545,1.316,0.594,1.86,0.11c0.038-0.034,0.074-0.071,0.109-0.11l27.366-27.365l3.722,3.721l-34.387,34.379l-1.956-6.462
		c-0.127-0.411-0.45-0.733-0.86-0.86l-7.908-2.403l-2.386-7.891c-0.128-0.411-0.45-0.733-0.861-0.861l-6.46-1.956l34.368-34.403
		l3.722,3.721l-27.375,27.366C592.579,45.327,592.579,46.158,593.091,46.673z M579.534,64.762l1.481-14.272l6.365,1.92l2.386,7.891
		c0.128,0.412,0.45,0.734,0.862,0.861l7.89,2.387l1.921,6.365l-14.238,1.473L579.534,64.762z M639.055,32.305l-20.44-20.44
		l3.618-3.618l20.431,20.457L639.055,32.305z"/>
</g>
</svg>
